<?xml version="1.0" encoding="UTF-8" standalone="no"?>
<!DOCTYPE svg PUBLIC "-//W3C//DTD SVG 1.1//EN"
 "http://www.w3.org/Graphics/SVG/1.1/DTD/svg11.dtd">
<!-- Generated by graphviz version 5.0.0 (20220707.1540)
 -->
<!-- Title: dependencies Pages: 1 -->
<svg width="1353pt" height="247pt"
 viewBox="0.00 0.00 1353.00 246.80" xmlns="http://www.w3.org/2000/svg" xmlns:xlink="http://www.w3.org/1999/xlink">
<g id="graph0" class="graph" transform="scale(1 1) rotate(0) translate(4 242.8)">
<title>dependencies</title>
<polygon fill="white" stroke="transparent" points="-4,4 -4,-242.8 1349,-242.8 1349,4 -4,4"/>
<text text-anchor="middle" x="672.5" y="-8.2" font-family="sans-serif" font-size="14.00">dependencies</text>
<g id="clust1" class="cluster">
<title>cluster_AngularYandexMapsModule</title>
<polygon fill="none" stroke="black" stroke-dasharray="1,5" points="8,-32.8 8,-230.8 1337,-230.8 1337,-32.8 8,-32.8"/>
</g>
<g id="clust2" class="cluster">
<title>cluster_AngularYandexMapsModule_declarations</title>
<polygon fill="none" stroke="black" points="32,-40.8 32,-92.8 1318,-92.8 1318,-40.8 32,-40.8"/>
</g>
<g id="clust12" class="cluster">
<title>cluster_AngularYandexMapsModule_exports</title>
<polygon fill="none" stroke="black" points="16,-170.8 16,-222.8 1329,-222.8 1329,-170.8 16,-170.8"/>
</g>
<!-- YaClustererComponent -->
<g id="node1" class="node">
<title>YaClustererComponent</title>
<polygon fill="#ffffb3" stroke="black" points="1310.47,-84.8 1161.53,-84.8 1161.53,-48.8 1310.47,-48.8 1310.47,-84.8"/>
<text text-anchor="middle" x="1236" y="-62.6" font-family="Times,serif" font-size="14.00">YaClustererComponent</text>
</g>
<!-- AngularYandexMapsModule -->
<g id="node9" class="node">
<title>AngularYandexMapsModule</title>
<polygon fill="#8dd3c7" stroke="black" points="717.08,-149.8 714.08,-153.8 693.08,-153.8 690.08,-149.8 536.92,-149.8 536.92,-113.8 717.08,-113.8 717.08,-149.8"/>
<text text-anchor="middle" x="627" y="-127.6" font-family="Times,serif" font-size="14.00">AngularYandexMapsModule</text>
</g>
<!-- YaClustererComponent&#45;&gt;AngularYandexMapsModule -->
<g id="edge1" class="edge">
<title>YaClustererComponent&#45;&gt;AngularYandexMapsModule</title>
<path fill="none" stroke="black" d="M1165.14,-85.02C1165.14,-103.63 1165.14,-129.8 1165.14,-129.8 1165.14,-129.8 727.07,-129.8 727.07,-129.8"/>
<polygon fill="black" stroke="black" points="727.07,-126.3 717.07,-129.8 727.07,-133.3 727.07,-126.3"/>
</g>
<!-- YaControlDirective -->
<g id="node2" class="node">
<title>YaControlDirective</title>
<polygon fill="#ffffb3" stroke="black" points="1143.69,-84.8 1016.31,-84.8 1016.31,-48.8 1143.69,-48.8 1143.69,-84.8"/>
<text text-anchor="middle" x="1080" y="-62.6" font-family="Times,serif" font-size="14.00">YaControlDirective</text>
</g>
<!-- YaControlDirective&#45;&gt;AngularYandexMapsModule -->
<g id="edge2" class="edge">
<title>YaControlDirective&#45;&gt;AngularYandexMapsModule</title>
<path fill="none" stroke="black" d="M1102.28,-84.83C1102.28,-101.86 1102.28,-124.8 1102.28,-124.8 1102.28,-124.8 727.24,-124.8 727.24,-124.8"/>
<polygon fill="black" stroke="black" points="727.24,-121.3 717.24,-124.8 727.24,-128.3 727.24,-121.3"/>
</g>
<!-- YaGeoObjectDirective -->
<g id="node3" class="node">
<title>YaGeoObjectDirective</title>
<polygon fill="#ffffb3" stroke="black" points="998.55,-84.8 853.45,-84.8 853.45,-48.8 998.55,-48.8 998.55,-84.8"/>
<text text-anchor="middle" x="926" y="-62.6" font-family="Times,serif" font-size="14.00">YaGeoObjectDirective</text>
</g>
<!-- YaGeoObjectDirective&#45;&gt;AngularYandexMapsModule -->
<g id="edge3" class="edge">
<title>YaGeoObjectDirective&#45;&gt;AngularYandexMapsModule</title>
<path fill="none" stroke="black" d="M950.17,-85.04C950.17,-100.37 950.17,-119.8 950.17,-119.8 950.17,-119.8 727.45,-119.8 727.45,-119.8"/>
<polygon fill="black" stroke="black" points="727.45,-116.3 717.45,-119.8 727.45,-123.3 727.45,-116.3"/>
</g>
<!-- YaMapComponent -->
<g id="node4" class="node">
<title>YaMapComponent</title>
<polygon fill="#ffffb3" stroke="black" points="835.82,-84.8 712.18,-84.8 712.18,-48.8 835.82,-48.8 835.82,-84.8"/>
<text text-anchor="middle" x="774" y="-62.6" font-family="Times,serif" font-size="14.00">YaMapComponent</text>
</g>
<!-- YaMapComponent&#45;&gt;AngularYandexMapsModule -->
<g id="edge4" class="edge">
<title>YaMapComponent&#45;&gt;AngularYandexMapsModule</title>
<path fill="none" stroke="black" d="M712.2,-66.8C706.75,-66.8 703.24,-66.8 703.24,-66.8 703.24,-66.8 703.24,-103.69 703.24,-103.69"/>
<polygon fill="black" stroke="black" points="699.74,-103.69 703.24,-113.69 706.74,-103.69 699.74,-103.69"/>
</g>
<!-- YaMultirouteDirective -->
<g id="node5" class="node">
<title>YaMultirouteDirective</title>
<polygon fill="#ffffb3" stroke="black" points="694.29,-84.8 549.71,-84.8 549.71,-48.8 694.29,-48.8 694.29,-84.8"/>
<text text-anchor="middle" x="622" y="-62.6" font-family="Times,serif" font-size="14.00">YaMultirouteDirective</text>
</g>
<!-- YaMultirouteDirective&#45;&gt;AngularYandexMapsModule -->
<g id="edge5" class="edge">
<title>YaMultirouteDirective&#45;&gt;AngularYandexMapsModule</title>
<path fill="none" stroke="black" d="M622,-84.91C622,-84.91 622,-103.79 622,-103.79"/>
<polygon fill="black" stroke="black" points="618.5,-103.79 622,-113.79 625.5,-103.79 618.5,-103.79"/>
</g>
<!-- YaObjectManagerDirective -->
<g id="node6" class="node">
<title>YaObjectManagerDirective</title>
<polygon fill="#ffffb3" stroke="black" points="531.98,-84.8 360.02,-84.8 360.02,-48.8 531.98,-48.8 531.98,-84.8"/>
<text text-anchor="middle" x="446" y="-62.6" font-family="Times,serif" font-size="14.00">YaObjectManagerDirective</text>
</g>
<!-- YaObjectManagerDirective&#45;&gt;AngularYandexMapsModule -->
<g id="edge6" class="edge">
<title>YaObjectManagerDirective&#45;&gt;AngularYandexMapsModule</title>
<path fill="none" stroke="black" d="M528.11,-85.04C528.11,-100.37 528.11,-119.8 528.11,-119.8 528.11,-119.8 528.99,-119.8 528.99,-119.8"/>
<polygon fill="black" stroke="black" points="526.89,-123.3 536.89,-119.8 526.89,-116.3 526.89,-123.3"/>
</g>
<!-- YaPanoramaDirective -->
<g id="node7" class="node">
<title>YaPanoramaDirective</title>
<polygon fill="#ffffb3" stroke="black" points="342.39,-84.8 201.61,-84.8 201.61,-48.8 342.39,-48.8 342.39,-84.8"/>
<text text-anchor="middle" x="272" y="-62.6" font-family="Times,serif" font-size="14.00">YaPanoramaDirective</text>
</g>
<!-- YaPanoramaDirective&#45;&gt;AngularYandexMapsModule -->
<g id="edge7" class="edge">
<title>YaPanoramaDirective&#45;&gt;AngularYandexMapsModule</title>
<path fill="none" stroke="black" d="M337.07,-84.83C337.07,-101.86 337.07,-124.8 337.07,-124.8 337.07,-124.8 526.85,-124.8 526.85,-124.8"/>
<polygon fill="black" stroke="black" points="526.85,-128.3 536.85,-124.8 526.85,-121.3 526.85,-128.3"/>
</g>
<!-- YaPlacemarkDirective -->
<g id="node8" class="node">
<title>YaPlacemarkDirective</title>
<polygon fill="#ffffb3" stroke="black" points="183.99,-84.8 40.01,-84.8 40.01,-48.8 183.99,-48.8 183.99,-84.8"/>
<text text-anchor="middle" x="112" y="-62.6" font-family="Times,serif" font-size="14.00">YaPlacemarkDirective</text>
</g>
<!-- YaPlacemarkDirective&#45;&gt;AngularYandexMapsModule -->
<g id="edge8" class="edge">
<title>YaPlacemarkDirective&#45;&gt;AngularYandexMapsModule</title>
<path fill="none" stroke="black" d="M177.12,-85.02C177.12,-103.63 177.12,-129.8 177.12,-129.8 177.12,-129.8 526.77,-129.8 526.77,-129.8"/>
<polygon fill="black" stroke="black" points="526.77,-133.3 536.77,-129.8 526.77,-126.3 526.77,-133.3"/>
</g>
<!-- YaClustererComponent  -->
<g id="node10" class="node">
<title>YaClustererComponent </title>
<polygon fill="#fb8072" stroke="black" points="1321.47,-214.8 1168.53,-214.8 1168.53,-178.8 1321.47,-178.8 1321.47,-214.8"/>
<text text-anchor="middle" x="1245" y="-192.6" font-family="Times,serif" font-size="14.00">YaClustererComponent </text>
</g>
<!-- AngularYandexMapsModule&#45;&gt;YaClustererComponent  -->
<g id="edge9" class="edge">
<title>AngularYandexMapsModule&#45;&gt;YaClustererComponent </title>
<path fill="none" stroke="black" stroke-dasharray="5,2" d="M717.07,-134.8C887.35,-134.8 1239.62,-134.8 1239.62,-134.8 1239.62,-134.8 1239.62,-168.53 1239.62,-168.53"/>
<polygon fill="black" stroke="black" points="1236.13,-168.53 1239.62,-178.53 1243.13,-168.53 1236.13,-168.53"/>
</g>
<!-- YaControlDirective  -->
<g id="node11" class="node">
<title>YaControlDirective </title>
<polygon fill="#fb8072" stroke="black" points="1150.19,-214.8 1019.81,-214.8 1019.81,-178.8 1150.19,-178.8 1150.19,-214.8"/>
<text text-anchor="middle" x="1085" y="-192.6" font-family="Times,serif" font-size="14.00">YaControlDirective </text>
</g>
<!-- AngularYandexMapsModule&#45;&gt;YaControlDirective  -->
<g id="edge10" class="edge">
<title>AngularYandexMapsModule&#45;&gt;YaControlDirective </title>
<path fill="none" stroke="black" stroke-dasharray="5,2" d="M717.18,-139.8C844.33,-139.8 1060.97,-139.8 1060.97,-139.8 1060.97,-139.8 1060.97,-168.76 1060.97,-168.76"/>
<polygon fill="black" stroke="black" points="1057.47,-168.76 1060.97,-178.76 1064.47,-168.76 1057.47,-168.76"/>
</g>
<!-- YaGeoObjectDirective  -->
<g id="node12" class="node">
<title>YaGeoObjectDirective </title>
<polygon fill="#fb8072" stroke="black" points="1001.05,-214.8 852.95,-214.8 852.95,-178.8 1001.05,-178.8 1001.05,-214.8"/>
<text text-anchor="middle" x="927" y="-192.6" font-family="Times,serif" font-size="14.00">YaGeoObjectDirective </text>
</g>
<!-- AngularYandexMapsModule&#45;&gt;YaGeoObjectDirective  -->
<g id="edge11" class="edge">
<title>AngularYandexMapsModule&#45;&gt;YaGeoObjectDirective </title>
<path fill="none" stroke="black" stroke-dasharray="5,2" d="M717.37,-144.8C797.47,-144.8 901.83,-144.8 901.83,-144.8 901.83,-144.8 901.83,-168.61 901.83,-168.61"/>
<polygon fill="black" stroke="black" points="898.33,-168.61 901.83,-178.61 905.33,-168.61 898.33,-168.61"/>
</g>
<!-- YaMapComponent  -->
<g id="node13" class="node">
<title>YaMapComponent </title>
<polygon fill="#fb8072" stroke="black" points="834.32,-214.8 707.68,-214.8 707.68,-178.8 834.32,-178.8 834.32,-214.8"/>
<text text-anchor="middle" x="771" y="-192.6" font-family="Times,serif" font-size="14.00">YaMapComponent </text>
</g>
<!-- AngularYandexMapsModule&#45;&gt;YaMapComponent  -->
<g id="edge12" class="edge">
<title>AngularYandexMapsModule&#45;&gt;YaMapComponent </title>
<path fill="none" stroke="black" stroke-dasharray="5,2" d="M712.31,-149.91C712.31,-149.91 712.31,-168.79 712.31,-168.79"/>
<polygon fill="black" stroke="black" points="708.81,-168.79 712.31,-178.79 715.81,-168.79 708.81,-168.79"/>
</g>
<!-- YaMultirouteDirective  -->
<g id="node14" class="node">
<title>YaMultirouteDirective </title>
<polygon fill="#fb8072" stroke="black" points="689.79,-214.8 542.21,-214.8 542.21,-178.8 689.79,-178.8 689.79,-214.8"/>
<text text-anchor="middle" x="616" y="-192.6" font-family="Times,serif" font-size="14.00">YaMultirouteDirective </text>
</g>
<!-- AngularYandexMapsModule&#45;&gt;YaMultirouteDirective  -->
<g id="edge13" class="edge">
<title>AngularYandexMapsModule&#45;&gt;YaMultirouteDirective </title>
<path fill="none" stroke="black" stroke-dasharray="5,2" d="M616,-149.91C616,-149.91 616,-168.79 616,-168.79"/>
<polygon fill="black" stroke="black" points="612.5,-168.79 616,-178.79 619.5,-168.79 612.5,-168.79"/>
</g>
<!-- YaObjectManagerDirective  -->
<g id="node15" class="node">
<title>YaObjectManagerDirective </title>
<polygon fill="#fb8072" stroke="black" points="524.48,-214.8 349.52,-214.8 349.52,-178.8 524.48,-178.8 524.48,-214.8"/>
<text text-anchor="middle" x="437" y="-192.6" font-family="Times,serif" font-size="14.00">YaObjectManagerDirective </text>
</g>
<!-- AngularYandexMapsModule&#45;&gt;YaObjectManagerDirective  -->
<g id="edge14" class="edge">
<title>AngularYandexMapsModule&#45;&gt;YaObjectManagerDirective </title>
<path fill="none" stroke="black" stroke-dasharray="5,2" d="M536.85,-144.8C489.98,-144.8 442.38,-144.8 442.38,-144.8 442.38,-144.8 442.38,-168.61 442.38,-168.61"/>
<polygon fill="black" stroke="black" points="438.88,-168.61 442.38,-178.61 445.88,-168.61 438.88,-168.61"/>
</g>
<!-- YaPanoramaDirective  -->
<g id="node16" class="node">
<title>YaPanoramaDirective </title>
<polygon fill="#fb8072" stroke="black" points="331.89,-214.8 188.11,-214.8 188.11,-178.8 331.89,-178.8 331.89,-214.8"/>
<text text-anchor="middle" x="260" y="-192.6" font-family="Times,serif" font-size="14.00">YaPanoramaDirective </text>
</g>
<!-- AngularYandexMapsModule&#45;&gt;YaPanoramaDirective  -->
<g id="edge15" class="edge">
<title>AngularYandexMapsModule&#45;&gt;YaPanoramaDirective </title>
<path fill="none" stroke="black" stroke-dasharray="5,2" d="M536.59,-139.8C429.91,-139.8 266.88,-139.8 266.88,-139.8 266.88,-139.8 266.88,-168.76 266.88,-168.76"/>
<polygon fill="black" stroke="black" points="263.38,-168.76 266.88,-178.76 270.38,-168.76 263.38,-168.76"/>
</g>
<!-- YaPlacemarkDirective  -->
<g id="node17" class="node">
<title>YaPlacemarkDirective </title>
<polygon fill="#fb8072" stroke="black" points="170.49,-214.8 23.51,-214.8 23.51,-178.8 170.49,-178.8 170.49,-214.8"/>
<text text-anchor="middle" x="97" y="-192.6" font-family="Times,serif" font-size="14.00">YaPlacemarkDirective </text>
</g>
<!-- AngularYandexMapsModule&#45;&gt;YaPlacemarkDirective  -->
<g id="edge16" class="edge">
<title>AngularYandexMapsModule&#45;&gt;YaPlacemarkDirective </title>
<path fill="none" stroke="black" stroke-dasharray="5,2" d="M536.74,-134.8C387.44,-134.8 105.38,-134.8 105.38,-134.8 105.38,-134.8 105.38,-168.53 105.38,-168.53"/>
<polygon fill="black" stroke="black" points="101.88,-168.53 105.38,-178.53 108.88,-168.53 101.88,-168.53"/>
</g>
</g>
</svg>
